<?xml version="1.0" encoding="UTF-8" standalone="no"?>
<!DOCTYPE svg PUBLIC "-//W3C//DTD SVG 1.1//EN" "http://www.w3.org/Graphics/SVG/1.1/DTD/svg11.dtd">
<svg width="100%" height="100%" viewBox="0 0 262 262" version="1.1" xmlns="http://www.w3.org/2000/svg" xmlns:xlink="http://www.w3.org/1999/xlink" xml:space="preserve" xmlns:serif="http://www.serif.com/" style="fill-rule:evenodd;clip-rule:evenodd;">
    <g transform="matrix(1,0,0,1,-1276,-3423)">
        <g id="announce-voice-svgrepo-com.svg" transform="matrix(0.327022,0,0,0.327022,1407.01,3553.95)">
            <g transform="matrix(1,0,0,1,-400,-400)">
                <g id="SVGRepo_iconCarrier">
                    <path d="M366.25,592.5L340,592.5L340,505.625L391.25,505.625L391.25,566.875C391.875,581.25 380.625,592.5 366.25,592.5Z" style="fill:rgb(10,204,190);fill-rule:nonzero;stroke:black;stroke-width:1px;"/>
                    <path d="M366.25,598.75L340,598.75C336.25,598.75 333.75,596.25 333.75,592.5L333.75,505.625C333.75,501.875 336.25,499.375 340,499.375L391.25,499.375C395,499.375 397.5,501.875 397.5,505.625L397.5,566.875C398.125,584.375 383.75,598.75 366.25,598.75ZM346.25,586.25L366.25,586.25C376.875,586.25 385.625,577.5 385.625,566.875L385.625,511.875L346.875,511.875L346.875,586.25L346.25,586.25Z" style="fill:rgb(106,87,109);fill-rule:nonzero;stroke:black;stroke-width:1px;"/>
                    <path d="M283.125,745.625L266.25,745.625C261.25,745.625 256.875,741.25 256.875,736.25L256.875,505.625L374.375,505.625L336.25,701.875C331.25,727.5 308.75,745.625 283.125,745.625Z" style="fill:rgb(189,189,189);fill-rule:nonzero;stroke:black;stroke-width:1px;"/>
                    <path d="M259.375,240.625L156.25,241.875C83.75,241.875 25,300.625 25,373.125C25,445.625 83.75,504.375 156.25,504.375L259.375,505.625C420.625,507.5 576.875,560 707.5,654.375L707.5,91.875C576.875,186.25 420,238.125 259.375,240.625Z" style="fill:white;fill-rule:nonzero;stroke:black;stroke-width:1px;"/>
                    <path d="M259.375,240.625L156.25,241.875C83.75,241.875 25,300.625 25,373.125C25,445.625 83.75,504.375 156.25,504.375L259.375,505.625C420.625,507.5 576.875,560 707.5,654.375L707.5,91.875C576.875,186.25 420,238.125 259.375,240.625Z" style="fill:white;fill-rule:nonzero;stroke:black;stroke-width:1px;"/>
                    <path d="M741.25,691.875C722.5,691.875 707.5,676.875 707.5,658.125L707.5,88.125C707.5,69.375 722.5,54.375 741.25,54.375C760,54.375 775,69.375 775,88.125L775,657.5C775,676.875 760,691.875 741.25,691.875Z" style="fill:white;fill-rule:nonzero;stroke:black;stroke-width:1px;"/>
                    <path d="M741.25,54.375C722.5,54.375 707.5,69.375 707.5,88.125L707.5,116.25C707.5,97.5 722.5,82.5 741.25,82.5C760,82.5 775,97.5 775,116.25L775,88.125C775,69.375 760,54.375 741.25,54.375Z" style="fill:rgb(249,248,246);fill-rule:nonzero;stroke:black;stroke-width:1px;"/>
                    <path d="M741.25,663.75C722.5,663.75 707.5,648.75 707.5,630L707.5,658.125C707.5,676.875 722.5,691.875 741.25,691.875C760,691.875 775,676.875 775,658.125L775,630C775,648.75 760,663.75 741.25,663.75Z" style="fill:rgb(13,16,20);fill-rule:nonzero;stroke:black;stroke-width:1px;"/>
                    <path d="M275.625,240C270,240 264.375,240.625 258.75,240.625L156.25,241.875C83.75,241.875 25,300.625 25,373.125C25,445.625 83.75,504.375 156.25,504.375L259.375,505.625C265,505.625 270.625,506.25 276.25,506.25L276.25,240L275.625,240Z" style="fill:rgb(0,153,74);fill-rule:nonzero;stroke:black;stroke-width:1px;"/>
                    <path d="M256.875,515L258.75,515C270.625,515 282.5,506.25 294.375,506.875L294.375,238.75C282.5,239.375 270.625,240 258.75,240L256.875,240L256.875,515Z" style="fill:rgb(189,189,189);fill-rule:nonzero;stroke:black;stroke-width:1px;"/>
                    <path d="M156.25,504.375L259.375,505.625C420.625,507.5 576.875,560 707.5,654.375L707.5,626.25C576.875,531.875 420,480 259.375,477.5L156.25,476.25C88.75,476.25 32.5,425 25.625,358.75C25,363.75 25,368.125 25,373.125C25,445.625 83.75,504.375 156.25,504.375Z" style="fill:rgb(13,16,20);fill-rule:nonzero;stroke:black;stroke-width:1px;"/>
                    <path d="M256.875,505.625L256.875,524.375L258.75,524.375C295.625,525 332.5,528.125 368.75,533.75L372.5,515.625C335,509.375 297.5,506.25 259.375,505.625L256.875,505.625Z" style="fill:rgb(13,16,20);fill-rule:nonzero;stroke:black;stroke-width:1px;"/>
                    <path d="M156.25,270L259.375,268.75C420.625,266.875 576.875,214.375 707.5,120L707.5,91.875C576.875,186.25 420,238.125 259.375,240.625L156.25,241.875C83.75,241.875 25,300.625 25,373.125C25,378.125 25,382.5 25.625,386.875C32.5,321.25 88.75,270 156.25,270Z" style="fill:white;fill-rule:nonzero;stroke:black;stroke-width:1px;"/>
                    <path d="M156.25,241.875C97.5,241.875 48.125,280 31.25,333.125L706.875,333.125L706.875,91.875C576.875,186.25 420,238.125 259.375,240.625L156.25,241.875Z" style="fill:rgb(249,248,246);fill-rule:nonzero;stroke:black;stroke-width:1px;"/>
                    <path d="M741.25,54.375C722.5,54.375 707.5,69.375 707.5,88.125L707.5,333.125L775,333.125L775,88.125C775,69.375 760,54.375 741.25,54.375Z" style="fill:rgb(249,248,246);fill-rule:nonzero;stroke:black;stroke-width:1px;"/>
                    <path d="M706.875,660.625C705.625,660.625 704.375,660 703.125,659.375C573.125,565 419.375,514.375 258.75,511.875L156.25,510.625C80.625,510.625 18.75,448.75 18.75,373.125C18.75,297.5 80.625,235.625 156.25,235.625L258.75,234.375C419.375,232.5 573.125,181.25 703.125,86.875C705.625,85 710,85.625 711.875,88.125C713.75,90.625 713.125,95 710.625,96.875C578.75,192.5 422.5,244.375 259.375,246.875L156.25,248.125C87.5,248.125 31.25,304.375 31.25,373.125C31.25,441.875 87.5,498.125 156.25,498.125L259.375,499.375C422.5,501.875 578.75,553.125 710.625,649.375C713.125,651.25 713.75,655 711.875,658.125C710.625,659.375 708.75,660.625 706.875,660.625Z" style="fill:rgb(106,87,109);fill-rule:nonzero;stroke:black;stroke-width:1px;"/>
                    <path d="M741.25,698.125C719.375,698.125 701.25,680 701.25,658.125L701.25,88.125C701.25,66.25 719.375,48.125 741.25,48.125C763.125,48.125 781.25,66.25 781.25,88.125L781.25,657.5C781.25,680 763.125,698.125 741.25,698.125ZM741.25,60.625C726.25,60.625 713.75,73.125 713.75,88.125L713.75,657.5C713.75,672.5 726.25,685 741.25,685C756.25,685 768.75,672.5 768.75,657.5L768.75,88.125C768.75,73.125 756.25,60.625 741.25,60.625ZM294.375,513.125C290.625,513.125 288.125,510.625 288.125,506.875L288.125,245.625C279.375,246.25 270.625,246.25 263.125,246.875L263.125,506.25C263.125,510 260.625,512.5 256.875,512.5C253.125,512.5 250.625,510 250.625,506.25L250.625,240.625C250.625,237.5 253.125,234.375 256.875,234.375L258.75,234.375C269.375,234.375 280.625,233.75 293.75,233.125C295.625,233.125 296.875,233.75 298.125,235C299.375,236.25 300,238.125 300,239.375L300,507.5C300.625,510.625 298.125,513.125 294.375,513.125Z" style="fill:rgb(106,87,109);fill-rule:nonzero;stroke:black;stroke-width:1px;"/>
                    <path d="M283.125,751.875L266.25,751.875C257.5,751.875 250.625,745 250.625,736.25L250.625,505.625C250.625,501.875 253.125,499.375 256.875,499.375C260.625,499.375 263.125,501.875 263.125,505.625L263.125,736.25C263.125,738.125 264.375,739.375 266.25,739.375L283.125,739.375C306.25,739.375 325.625,723.125 330,700.625L366.25,514.375C366.875,511.25 370,508.75 373.75,509.375C376.875,510 379.375,513.125 378.75,516.875L342.5,703.125C336.875,731.25 311.875,751.875 283.125,751.875Z" style="fill:rgb(106,87,109);fill-rule:nonzero;stroke:black;stroke-width:1px;"/>
                </g>
            </g>
        </g>
    </g>
</svg>
