<?xml version="1.0" encoding="UTF-8" standalone="no"?>
<!DOCTYPE svg PUBLIC "-//W3C//DTD SVG 1.1//EN" "http://www.w3.org/Graphics/SVG/1.1/DTD/svg11.dtd">
<svg width="100%" height="100%" viewBox="0 0 146 139" version="1.1" xmlns="http://www.w3.org/2000/svg" xmlns:xlink="http://www.w3.org/1999/xlink" xml:space="preserve" xmlns:serif="http://www.serif.com/" style="fill-rule:evenodd;clip-rule:evenodd;stroke-linejoin:round;stroke-miterlimit:2;">
    <g transform="matrix(1,0,0,1,-786,-1002)">
        <g transform="matrix(1,0,0,1,-15.0833,-61.752)">
            <g id="Bar-Graph" serif:id="Bar Graph" transform="matrix(2.13412,0,0,2.13838,479.56,-37.3473)">
                <g transform="matrix(1.17548,0,0,1,-26.5073,0)">
                    <rect x="151.052" y="576.466" width="57.746" height="3.373" style="fill:rgb(0,153,74);"/>
                </g>
                <g transform="matrix(6.48401e-17,-1.03903,1,6.24976e-17,-425.478,732.225)">
                    <rect x="151.052" y="576.466" width="57.746" height="3.373" style="fill:rgb(0,153,74);"/>
                </g>
                <g transform="matrix(1.95557e-17,-0.259758,2.99755,1.83863e-16,-1569.56,614.513)">
                    <rect x="151.052" y="576.466" width="57.746" height="3.373" style="fill:rgb(0,116,172);"/>
                </g>
                <g transform="matrix(3.54613e-17,-0.519517,2.99755,1.8418e-16,-1554.48,653.75)">
                    <rect x="151.052" y="576.466" width="57.746" height="3.373" style="fill:rgb(0,116,172);"/>
                </g>
                <g transform="matrix(5.1367e-17,-0.779275,2.99755,1.84496e-16,-1539.41,692.987)">
                    <rect x="151.052" y="576.466" width="57.746" height="3.373" style="fill:rgb(0,116,172);"/>
                </g>
                <g transform="matrix(6.72726e-17,-1.03903,2.99755,1.84812e-16,-1524.34,732.225)">
                    <rect x="151.052" y="576.466" width="57.746" height="3.373" style="fill:rgb(0,116,172);"/>
                </g>
            </g>
        </g>
    </g>
</svg>
