<?xml version="1.0" encoding="UTF-8" standalone="no"?>
<!DOCTYPE svg PUBLIC "-//W3C//DTD SVG 1.1//EN" "http://www.w3.org/Graphics/SVG/1.1/DTD/svg11.dtd">
<svg width="100%" height="100%" viewBox="0 0 245 250" version="1.1" xmlns="http://www.w3.org/2000/svg" xmlns:xlink="http://www.w3.org/1999/xlink" xml:space="preserve" xmlns:serif="http://www.serif.com/" style="fill-rule:evenodd;clip-rule:evenodd;">
    <g transform="matrix(1,0,0,1,-154,-2361)">
        <g id="computer-svgrepo-com.svg" transform="matrix(0.306027,0,0,0.310754,276.548,2486.02)">
            <g transform="matrix(1,0,0,1,-400,-400)">
                <g id="SVGRepo_iconCarrier">
                    <path d="M315,627.5C314.375,627.5 308.125,677.5 307.5,678.75C306.25,689.375 304.375,695.625 298.75,700.625C296.875,702.5 295,703.125 293.125,704.375C288.75,707.5 285,709.375 280,712.5C276.25,714.375 271.875,721.875 276.25,723.75L523.75,723.75C528.125,721.875 523.75,715 520,713.125C515,710 511.25,707.5 506.875,703.75C505,702.5 503.125,700.625 501.25,698.75C496.25,693.75 493.75,689.375 492.5,678.75C492.5,677.5 485,623.125 485,627.5" style="fill:rgb(210,213,214);fill-rule:nonzero;stroke:black;stroke-width:1px;"/>
                    <path d="M775,550.625L775,96.875C775,85.625 766.25,76.25 755,76.25L45,76.25C33.75,76.25 25,85.625 25,96.875L25,551.25" style="fill:rgb(138,142,147);fill-rule:nonzero;stroke:black;stroke-width:1px;"/>
                    <rect x="65.625" y="116.875" width="668.75" height="393.125" style="fill:rgb(189,189,189);fill-rule:nonzero;stroke:black;stroke-width:1px;"/>
                    <path d="M294.096,115.364L735.608,514.553L731.815,116.808L294.096,115.364Z" style="fill:rgb(250,251,250);fill-rule:nonzero;stroke:black;stroke-width:1px;"/>
                    <path d="M25,550L25,606.875C25,618.125 33.75,627.5 45,627.5L754.375,627.5C765.625,627.5 774.375,618.125 774.375,606.875L774.375,550" style="fill:rgb(210,213,214);fill-rule:nonzero;stroke:black;stroke-width:1px;"/>
                    <path d="M380.625,589.375C380.625,599.661 389.089,608.125 399.375,608.125C409.661,608.125 418.125,599.661 418.125,589.375C418.125,579.089 409.661,570.625 399.375,570.625C389.089,570.625 380.625,579.089 380.625,589.375Z" style="fill:rgb(181,100,0);fill-rule:nonzero;stroke:black;stroke-width:1px;"/>
                    <path d="M486.875,646.25C486.25,627.5 485.625,627.5 485.625,627.5L315.625,627.5C315.625,627.5 315,627.5 314.375,646.25L486.875,646.25Z" style="fill:rgb(13,16,20);fill-rule:nonzero;stroke:black;stroke-width:1px;"/>
                    <path d="M351.25,444.375L350,447.5L351.25,444.375Z" style="fill:rgb(153,217,230);fill-rule:nonzero;stroke:black;stroke-width:1px;"/>
                    <path d="M276.25,730C275.625,730 274.375,730 273.75,729.375C270.625,728.125 268.125,725 268.125,721.25C268.125,715 273.125,708.75 276.875,706.875L279.375,705.625C283.125,703.75 286.25,701.875 288.75,699.375C290,698.75 290.625,698.125 291.875,697.5C292.5,696.875 293.125,696.875 293.75,696.25C297.5,693.125 298.75,688.125 300,678.75C306.25,626.25 306.25,626.25 312.5,626.25C316.25,626.25 318.75,628.75 318.75,632.5L318.75,634.375C318.125,638.75 313.125,676.875 312.5,680C311.25,691.25 308.75,699.375 301.875,705.625C300.625,706.875 298.75,708.125 297.5,708.75C296.875,709.375 296.25,709.375 295.625,710C291.875,713.125 288.125,715 284.375,716.875L281.875,718.125L512.5,718.125C508.125,715.625 504.375,712.5 500.625,710C499.375,708.75 498.125,707.5 496.25,706.25L494.375,705C487.5,698.75 485,691.875 483.75,681.25C483.125,678.125 478.75,643.125 477.5,635.625C477.5,635 476.875,634.375 476.875,633.125C476.875,630 479.375,626.875 482.5,626.25C489.375,625.625 489.375,625.625 495.625,678.75C496.875,688.75 498.75,691.875 501.875,695L503.75,696.875C505,698.125 506.25,698.75 506.875,700C511.25,703.125 514.375,705.625 519.375,708.75C523.125,710.625 528.75,716.875 528.125,722.5C528.125,726.25 525.625,728.75 522.5,730.625C521.875,731.25 520.625,731.25 520,731.25L276.25,730ZM775,556.875C771.25,556.875 768.75,554.375 768.75,550.625L768.75,96.875C768.75,88.75 762.5,82.5 755,82.5L45,82.5C37.5,82.5 31.25,88.75 31.25,96.875L31.25,551.25C31.25,555 28.75,557.5 25,557.5C21.25,557.5 18.75,555 18.75,551.25L18.75,96.875C18.75,81.875 30.625,70 45,70L754.375,70C768.75,70 780.625,81.875 780.625,96.875L780.625,551.25C781.25,554.375 778.75,556.875 775,556.875Z" style="fill:rgb(106,87,109);fill-rule:nonzero;stroke:black;stroke-width:1px;"/>
                    <path d="M734.375,516.25L65.625,516.25C61.875,516.25 59.375,513.75 59.375,510L59.375,116.875C59.375,113.125 61.875,110.625 65.625,110.625L734.375,110.625C738.125,110.625 740.625,113.125 740.625,116.875L740.625,510C740.625,513.75 737.5,516.25 734.375,516.25ZM71.875,503.75L728.125,503.75L728.125,123.125L71.875,123.125L71.875,503.75ZM755,633.75L45,633.75C30.625,633.75 18.75,621.875 18.75,606.875L18.75,550C18.75,546.25 21.25,543.75 25,543.75L775,543.75C778.75,543.75 781.25,546.25 781.25,550L781.25,606.875C781.25,621.875 769.375,633.75 755,633.75ZM31.25,556.25L31.25,606.875C31.25,615 37.5,621.25 45,621.25L754.375,621.25C761.875,621.25 768.125,615 768.125,606.875L768.125,556.25L31.25,556.25Z" style="fill:rgb(106,87,109);fill-rule:nonzero;stroke:black;stroke-width:1px;"/>
                </g>
            </g>
        </g>
    </g>
</svg>
