<?xml version="1.0" encoding="UTF-8" standalone="no"?>
<!DOCTYPE svg PUBLIC "-//W3C//DTD SVG 1.1//EN" "http://www.w3.org/Graphics/SVG/1.1/DTD/svg11.dtd">
<svg width="100%" height="100%" viewBox="0 0 247 46" version="1.1" xmlns="http://www.w3.org/2000/svg" xmlns:xlink="http://www.w3.org/1999/xlink" xml:space="preserve" xmlns:serif="http://www.serif.com/" style="fill-rule:evenodd;clip-rule:evenodd;stroke-linejoin:round;stroke-miterlimit:2;">
    <g transform="matrix(1,0,0,1,-157,-34)">
        <g transform="matrix(1.09392,0,0,1.09392,100.647,-388.939)">
            <g transform="matrix(2.61486,0,0,2.65261,179.127,422.551)">
                <text x="0px" y="0px" style="font-family:'QuicksandBook-Regular', 'Quicksand', serif;font-size:15.812px;">{<tspan x="5.85px 8.048px 16.097px 24.793px 30.673px " y="0px 0px 0px 0px 0px ">labs}</tspan></text>
            </g>
            <g transform="matrix(0.589341,0,0,0.626172,44.6733,263.557)">
                <text x="48.358px" y="254.436px" style="font-family:'Oxanium-SemiBold', 'Oxanium';font-weight:600;font-size:72px;">actor</text>
            </g>
            <g>
                <g transform="matrix(1.02581,0,0,1.07055,-286.827,-12.7703)">
                    <rect x="330.619" y="385.809" width="16.602" height="5.38" style="fill:rgb(0,153,74);"/>
                </g>
                <g transform="matrix(1.02581,0,0,1.07055,-286.827,-25.7703)">
                    <rect x="330.619" y="385.809" width="16.602" height="5.38" style="fill:rgb(0,116,172);"/>
                </g>
                <g transform="matrix(6.2813e-17,1.02581,-1.07055,6.55521e-17,471.113,66.8129)">
                    <rect x="330.619" y="385.809" width="16.602" height="5.38" style="fill:rgb(0,153,74);"/>
                </g>
            </g>
        </g>
    </g>
</svg>
