<?xml version="1.0" encoding="UTF-8" standalone="no"?><!DOCTYPE svg PUBLIC "-//W3C//DTD SVG 1.1//EN" "http://www.w3.org/Graphics/SVG/1.1/DTD/svg11.dtd"><svg width="100%" height="100%" viewBox="0 0 2938 363" version="1.1" xmlns="http://www.w3.org/2000/svg" xmlns:xlink="http://www.w3.org/1999/xlink" xml:space="preserve" xmlns:serif="http://www.serif.com/" style="fill-rule:evenodd;clip-rule:evenodd;stroke-linejoin:round;stroke-miterlimit:2;"><g><g transform="matrix(0.985767,0,0,1,16.2831,0)"><text x="1144.07px" y="306.874px" style="font-family:'QuicksandBook-Regular', 'Quicksand', serif;font-size:383.573px;">{<tspan x="1282.1px 1546.81px 1738.22px 1943.34px " y="306.874px 306.874px 306.874px 306.874px ">web}</tspan></text></g><g transform="matrix(0.94118,0,0,1,-5.03086,-2.27374e-13)"><text x="191.388px" y="306.707px" style="font-family:'Oxanium-SemiBold', 'Oxanium';font-weight:600;font-size:412.302px;">actor</text></g><g><rect x="0.817" y="121.663" width="161.332" height="47.144" style="fill:#00994a;"/><rect x="0.817" y="15.257" width="161.332" height="47.144" style="fill:#0074ac;"/><path d="M55.378,307.811l0,-139.398l-54.561,0l-0,139.398l54.561,-0Z" style="fill:#00994a;"/></g><g transform="matrix(0.94118,0,0,1,121.137,-2.27374e-13)"><text x="2336.38px" y="307.811px" style="font-family:'Oxanium-SemiBold', 'Oxanium';font-weight:600;font-size:412.302px;">abs</text></g><g><path d="M2209.36,15.311l0,194.281l-49.882,0l-0,-194.281l49.882,-0Z" style="fill:#ab6823;"/><rect x="2159.48" y="258.489" width="147.41" height="49.322" style="fill:#0074ac;"/></g></g></svg>