<?xml version="1.0" encoding="UTF-8" standalone="no"?>
<!DOCTYPE svg PUBLIC "-//W3C//DTD SVG 1.1//EN" "http://www.w3.org/Graphics/SVG/1.1/DTD/svg11.dtd">
<svg width="100%" height="100%" viewBox="0 0 171 149" version="1.1" xmlns="http://www.w3.org/2000/svg" xmlns:xlink="http://www.w3.org/1999/xlink" xml:space="preserve" xmlns:serif="http://www.serif.com/" style="fill-rule:evenodd;clip-rule:evenodd;stroke-linecap:square;stroke-miterlimit:1.5;">
    <g transform="matrix(1,0,0,1,-139,-640)">
        <g id="Gears" transform="matrix(1.19004,0,0,1.19004,-71.4629,-147.388)">
            <path d="M221.403,663.42C218.924,663.179 216.428,663.179 213.949,663.42L212.721,669.397C210.345,669.761 208.016,670.385 205.777,671.258L201.725,666.695C199.457,667.726 197.295,668.975 195.269,670.423L197.194,676.213C195.318,677.716 193.613,679.421 192.11,681.297L186.32,679.371C184.872,681.398 183.624,683.56 182.593,685.827L187.155,689.879C186.282,692.119 185.658,694.447 185.295,696.823L179.318,698.051C179.077,700.53 179.077,703.027 179.318,705.506L185.295,706.734C185.658,709.11 186.282,711.438 187.155,713.678L182.593,717.73C183.624,719.997 184.872,722.159 186.32,724.186L192.11,722.26C193.613,724.136 195.318,725.841 197.194,727.344L195.269,733.134C197.295,734.582 199.457,735.831 201.725,736.862L205.777,732.299C208.016,733.172 210.345,733.796 212.721,734.16L213.949,740.137C216.428,740.378 218.924,740.378 221.403,740.137L222.631,734.16C225.007,733.796 227.336,733.172 229.576,732.299L233.627,736.862C235.895,735.831 238.057,734.582 240.083,733.134L238.158,727.344C240.034,725.841 241.739,724.136 243.242,722.26L249.032,724.186C250.48,722.159 251.728,719.997 252.759,717.73L248.197,713.678C249.07,711.438 249.694,709.11 250.057,706.734L256.035,705.506C256.275,703.027 256.275,700.53 256.035,698.051L250.057,696.823C249.694,694.447 249.07,692.119 248.197,689.879L252.759,685.827C251.728,683.56 250.48,681.398 249.032,679.371L243.242,681.297C241.739,679.421 240.034,677.716 238.158,676.213L240.083,670.423C238.057,668.975 235.895,667.726 233.627,666.695L229.576,671.258C227.336,670.385 225.007,669.761 222.631,669.397L221.403,663.42ZM217.676,694.071C221.93,694.071 225.384,697.524 225.384,701.779C225.384,706.033 221.93,709.486 217.676,709.486C213.422,709.486 209.968,706.033 209.968,701.779C209.968,697.524 213.422,694.071 217.676,694.071Z" style="fill:rgb(0,116,172);stroke:rgb(0,116,172);stroke-width:1.68px;"/>
            <g transform="matrix(1.0106,-0.0838605,0.0838605,1.0106,1.02117,55.0005)">
                <path d="M221.403,663.42C218.924,663.179 216.428,663.179 213.949,663.42L212.721,669.397C210.345,669.761 208.016,670.385 205.777,671.258L201.725,666.695C199.457,667.726 197.295,668.975 195.269,670.423L197.194,676.213C195.318,677.716 193.613,679.421 192.11,681.297L186.32,679.371C184.872,681.398 183.624,683.56 182.593,685.827L187.155,689.879C186.282,692.119 185.658,694.447 185.295,696.823L179.318,698.051C179.077,700.53 179.077,703.027 179.318,705.506L185.295,706.734C185.658,709.11 186.282,711.438 187.155,713.678L182.593,717.73C183.624,719.997 184.872,722.159 186.32,724.186L192.11,722.26C193.613,724.136 195.318,725.841 197.194,727.344L195.269,733.134C197.295,734.582 199.457,735.831 201.725,736.862L205.777,732.299C208.016,733.172 210.345,733.796 212.721,734.16L213.949,740.137C216.428,740.378 218.924,740.378 221.403,740.137L222.631,734.16C225.007,733.796 227.336,733.172 229.576,732.299L233.627,736.862C235.895,735.831 238.057,734.582 240.083,733.134L238.158,727.344C240.034,725.841 241.739,724.136 243.242,722.26L249.032,724.186C250.48,722.159 251.728,719.997 252.759,717.73L248.197,713.678C249.07,711.438 249.694,709.11 250.057,706.734L256.035,705.506C256.275,703.027 256.275,700.53 256.035,698.051L250.057,696.823C249.694,694.447 249.07,692.119 248.197,689.879L252.759,685.827C251.728,683.56 250.48,681.398 249.032,679.371L243.242,681.297C241.739,679.421 240.034,677.716 238.158,676.213L240.083,670.423C238.057,668.975 235.895,667.726 233.627,666.695L229.576,671.258C227.336,670.385 225.007,669.761 222.631,669.397L221.403,663.42ZM217.676,694.071C221.93,694.071 225.384,697.524 225.384,701.779C225.384,706.033 221.93,709.486 217.676,709.486C213.422,709.486 209.968,706.033 209.968,701.779C209.968,697.524 213.422,694.071 217.676,694.071Z" style="fill:rgb(0,153,74);stroke:rgb(0,153,74);stroke-width:1.66px;"/>
            </g>
        </g>
    </g>
</svg>
