<?xml version="1.0" encoding="UTF-8" standalone="no"?>
<!DOCTYPE svg PUBLIC "-//W3C//DTD SVG 1.1//EN" "http://www.w3.org/Graphics/SVG/1.1/DTD/svg11.dtd">
<svg width="100%" height="100%" viewBox="0 0 140 138" version="1.1" xmlns="http://www.w3.org/2000/svg" xmlns:xlink="http://www.w3.org/1999/xlink" xml:space="preserve" xmlns:serif="http://www.serif.com/" style="fill-rule:evenodd;clip-rule:evenodd;stroke-linejoin:round;stroke-miterlimit:2;">
    <g transform="matrix(1,0,0,1,-469,-1000)">
        <g transform="matrix(1,0,0,1,24.0832,-61.752)">
            <g id="Hammer" transform="matrix(2.45046,1.48569,-1.48569,2.45046,1020.34,-403.214)">
                <g transform="matrix(1,0,0,1,22.9662,-16.6251)">
                    <rect x="118.769" y="550.389" width="4.184" height="10.446" style="fill:rgb(0,116,172);"/>
                </g>
                <g transform="matrix(1,-5.55112e-17,0,0.717855,17.921,140.138)">
                    <rect x="118.769" y="550.389" width="4.184" height="10.446" style="fill:rgb(0,116,172);"/>
                </g>
                <g transform="matrix(6.86183,0,0,1,-707.853,-16.6251)">
                    <rect x="118.769" y="550.389" width="4.184" height="10.446" style="fill:rgb(0,116,172);"/>
                </g>
                <g transform="matrix(1.34893e-17,-1.12686,0.996041,2.83035e-16,-426.967,634.433)">
                    <path d="M80.049,524.363L89.353,535.345L80.049,535.345L80.049,524.363Z" style="fill:rgb(0,116,172);"/>
                </g>
                <g transform="matrix(0.964139,0,0,0.764671,31.3544,123.123)">
                    <rect x="92.51" y="552.341" width="2.692" height="15.267" style="fill:rgb(0,153,74);"/>
                </g>
                <g transform="matrix(1.83951,0,0,1.32002,-50.8042,-170.609)">
                    <rect x="92.51" y="552.341" width="2.692" height="15.267" style="fill:rgb(0,153,74);"/>
                </g>
            </g>
        </g>
    </g>
</svg>
