<?xml version="1.0" encoding="UTF-8" standalone="no"?>
<!DOCTYPE svg PUBLIC "-//W3C//DTD SVG 1.1//EN" "http://www.w3.org/Graphics/SVG/1.1/DTD/svg11.dtd">
<svg width="100%" height="100%" viewBox="0 0 265 265" version="1.1" xmlns="http://www.w3.org/2000/svg" xmlns:xlink="http://www.w3.org/1999/xlink" xml:space="preserve" xmlns:serif="http://www.serif.com/" style="fill-rule:evenodd;clip-rule:evenodd;stroke-linejoin:round;stroke-miterlimit:2;">
    <g transform="matrix(1,0,0,1,-1290,-2650)">
        <g id="list-list-svgrepo-com.svg" transform="matrix(0.329797,0,0,0.329797,1422.61,2782.7)">
            <g transform="matrix(1,0,0,1,-400,-400)">
                <g id="SVGRepo_iconCarrier">
                    <path d="M165.625,25L634.375,25C660,25 681.25,46.25 681.25,71.875L681.25,728.125C681.25,753.75 660,775 634.375,775L165.625,775C140,775 118.75,753.75 118.75,728.125L118.75,71.875C118.75,46.25 140,25 165.625,25Z" style="fill:white;fill-rule:nonzero;"/>
                    <path d="M323.75,684.375L211.875,684.375C203.75,684.375 196.875,677.5 196.875,669.375L196.875,557.5C196.875,549.375 203.75,542.5 211.875,542.5L323.75,542.5C331.875,542.5 338.75,549.375 338.75,557.5L338.75,669.375C338.75,677.5 331.875,684.375 323.75,684.375Z" style="fill:white;fill-rule:nonzero;"/>
                    <path d="M634.375,781.25L165.625,781.25C136.25,781.25 112.5,757.5 112.5,728.125L112.5,71.875C112.5,42.5 136.25,18.75 165.625,18.75L634.375,18.75C663.75,18.75 687.5,42.5 687.5,71.875L687.5,728.125C687.5,757.5 663.75,781.25 634.375,781.25ZM165.625,31.25C143.125,31.25 125,49.375 125,71.875L125,728.125C125,750.625 143.125,768.75 165.625,768.75L634.375,768.75C656.875,768.75 675,750.625 675,728.125L675,71.875C675,49.375 656.875,31.25 634.375,31.25L165.625,31.25Z" style="fill:rgb(106,87,109);fill-rule:nonzero;"/>
                    <path d="M323.75,258.125L211.875,258.125C203.75,258.125 196.875,251.25 196.875,243.125L196.875,130.625C196.875,122.5 203.75,115.625 211.875,115.625L323.75,115.625C331.875,115.625 338.75,122.5 338.75,130.625L338.75,242.5C338.75,251.25 331.875,258.125 323.75,258.125Z" style="fill:rgb(181,100,0);fill-rule:nonzero;"/>
                    <path d="M323.75,264.375L211.875,264.375C200,264.375 190.625,255 190.625,243.125L190.625,130.625C190.625,118.75 200,109.375 211.875,109.375L323.75,109.375C335.625,109.375 345,118.75 345,130.625L345,242.5C345,254.375 335.625,264.375 323.75,264.375ZM211.875,121.875C206.875,121.875 203.125,125.625 203.125,130.625L203.125,242.5C203.125,247.5 206.875,251.25 211.875,251.25L323.75,251.25C328.75,251.25 332.5,247.5 332.5,242.5L332.5,130.625C332.5,125.625 328.75,121.875 323.75,121.875L211.875,121.875Z" style="fill:rgb(106,87,109);fill-rule:nonzero;"/>
                    <path d="M323.75,471.25L211.875,471.25C203.75,471.25 196.875,464.375 196.875,456.25L196.875,343.75C196.875,335.625 203.75,328.75 211.875,328.75L323.75,328.75C331.875,328.75 338.75,335.625 338.75,343.75L338.75,456.25C338.75,464.375 331.875,471.25 323.75,471.25Z" style="fill:rgb(181,100,0);fill-rule:nonzero;"/>
                    <path d="M323.75,477.5L211.875,477.5C200,477.5 190.625,468.125 190.625,456.25L190.625,343.75C190.625,331.875 200,322.5 211.875,322.5L323.75,322.5C335.625,322.5 345,331.875 345,343.75L345,456.25C345,467.5 335.625,477.5 323.75,477.5ZM211.875,335C206.875,335 203.125,338.75 203.125,343.75L203.125,456.25C203.125,461.25 206.875,465 211.875,465L323.75,465C328.75,465 332.5,461.25 332.5,456.25L332.5,343.75C332.5,338.75 328.75,335 323.75,335L211.875,335ZM323.75,690.625L211.875,690.625C200,690.625 190.625,681.25 190.625,669.375L190.625,557.5C190.625,545.625 200,536.25 211.875,536.25L323.75,536.25C335.625,536.25 345,545.625 345,557.5L345,669.375C345,681.25 335.625,690.625 323.75,690.625ZM211.875,548.125C206.875,548.125 203.125,551.875 203.125,556.875L203.125,668.75C203.125,673.75 206.875,677.5 211.875,677.5L323.75,677.5C328.75,677.5 332.5,673.75 332.5,668.75L332.5,557.5C332.5,552.5 328.75,548.75 323.75,548.75L211.875,548.75L211.875,548.125ZM323.75,264.375L211.875,264.375C200,264.375 190.625,255 190.625,243.125L190.625,130.625C190.625,118.75 200,109.375 211.875,109.375L323.75,109.375C335.625,109.375 345,118.75 345,130.625L345,242.5C345,254.375 335.625,264.375 323.75,264.375ZM211.875,121.875C206.875,121.875 203.125,125.625 203.125,130.625L203.125,242.5C203.125,247.5 206.875,251.25 211.875,251.25L323.75,251.25C328.75,251.25 332.5,247.5 332.5,242.5L332.5,130.625C332.5,125.625 328.75,121.875 323.75,121.875L211.875,121.875Z" style="fill:rgb(106,87,109);fill-rule:nonzero;"/>
                    <path d="M323.75,477.5L211.875,477.5C200,477.5 190.625,468.125 190.625,456.25L190.625,343.75C190.625,331.875 200,322.5 211.875,322.5L323.75,322.5C335.625,322.5 345,331.875 345,343.75L345,456.25C345,467.5 335.625,477.5 323.75,477.5ZM211.875,335C206.875,335 203.125,338.75 203.125,343.75L203.125,456.25C203.125,461.25 206.875,465 211.875,465L323.75,465C328.75,465 332.5,461.25 332.5,456.25L332.5,343.75C332.5,338.75 328.75,335 323.75,335L211.875,335ZM323.75,690.625L211.875,690.625C200,690.625 190.625,681.25 190.625,669.375L190.625,557.5C190.625,545.625 200,536.25 211.875,536.25L323.75,536.25C335.625,536.25 345,545.625 345,557.5L345,669.375C345,681.25 335.625,690.625 323.75,690.625ZM211.875,548.125C206.875,548.125 203.125,551.875 203.125,556.875L203.125,668.75C203.125,673.75 206.875,677.5 211.875,677.5L323.75,677.5C328.75,677.5 332.5,673.75 332.5,668.75L332.5,557.5C332.5,552.5 328.75,548.75 323.75,548.75L211.875,548.75L211.875,548.125ZM600,193.125L428.125,193.125C424.375,193.125 421.875,190.625 421.875,186.875C421.875,183.125 424.375,180.625 428.125,180.625L600,180.625C603.75,180.625 606.25,183.125 606.25,186.875C606.25,190.625 603.75,193.125 600,193.125Z" style="fill:rgb(106,87,109);fill-rule:nonzero;"/>
                    <path d="M600,406.25L428.125,406.25C424.375,406.25 421.875,403.75 421.875,400C421.875,396.25 424.375,393.75 428.125,393.75L600,393.75C603.75,393.75 606.25,396.25 606.25,400C606.25,403.75 603.75,406.25 600,406.25Z" style="fill:rgb(106,87,109);fill-rule:nonzero;"/>
                    <path d="M598.75,619.375L426.875,619.375C423.125,619.375 420.625,616.875 420.625,613.125C420.625,609.375 423.125,606.875 426.875,606.875L598.75,606.875C602.5,606.875 605,609.375 605,613.125C605,616.875 601.875,619.375 598.75,619.375Z" style="fill:rgb(106,87,109);fill-rule:nonzero;"/>
                </g>
            </g>
        </g>
    </g>
</svg>
