<?xml version="1.0" encoding="UTF-8" standalone="no"?>
<!DOCTYPE svg PUBLIC "-//W3C//DTD SVG 1.1//EN" "http://www.w3.org/Graphics/SVG/1.1/DTD/svg11.dtd">
<svg width="100%" height="100%" viewBox="0 0 96 141" version="1.1" xmlns="http://www.w3.org/2000/svg" xmlns:xlink="http://www.w3.org/1999/xlink" xml:space="preserve" xmlns:serif="http://www.serif.com/" style="fill-rule:evenodd;clip-rule:evenodd;stroke-linecap:square;stroke-miterlimit:1.5;">
    <g transform="matrix(1,0,0,1,-1146,-999)">
        <g transform="matrix(1,0,0,1,-22.7665,-61.752)">
            <g id="Magnifying-Glass" serif:id="Magnifying Glass" transform="matrix(1.76435,0.919807,-0.915286,1.75568,1200.75,-123.707)">
                <g transform="matrix(0.778681,1.11022e-16,-1.66533e-16,0.778681,67.1776,52.0477)">
                    <circle cx="292.793" cy="629.182" r="21.437" style="fill:none;stroke:rgb(0,116,172);stroke-width:3.88px;"/>
                </g>
                <g transform="matrix(0.424049,0,0,0.424049,269.37,371.234)">
                    <g transform="matrix(1.02581,0,0,1.07055,-286.827,-12.7703)">
                        <rect x="330.619" y="385.809" width="16.602" height="5.38" style="fill:rgb(0,153,74);"/>
                    </g>
                    <g transform="matrix(1.02581,0,0,1.07055,-286.827,-25.7703)">
                        <rect x="330.619" y="385.809" width="16.602" height="5.38" style="fill:rgb(0,116,172);"/>
                    </g>
                    <g transform="matrix(6.2813e-17,1.02581,-1.07055,6.55521e-17,471.113,66.8129)">
                        <rect x="330.619" y="385.809" width="16.602" height="5.38" style="fill:rgb(0,153,74);"/>
                    </g>
                </g>
                <g transform="matrix(0.964139,-1.11022e-16,5.55112e-17,0.764671,204.68,143)">
                    <rect x="92.51" y="552.341" width="2.692" height="15.267" style="fill:rgb(0,153,74);"/>
                </g>
                <g transform="matrix(1.83951,-2.22045e-16,1.11022e-16,1.32002,122.521,-150.732)">
                    <rect x="92.51" y="552.341" width="2.692" height="15.267" style="fill:rgb(0,153,74);"/>
                </g>
            </g>
        </g>
    </g>
</svg>
