<?xml version="1.0" encoding="UTF-8" standalone="no"?>
<!DOCTYPE svg PUBLIC "-//W3C//DTD SVG 1.1//EN" "http://www.w3.org/Graphics/SVG/1.1/DTD/svg11.dtd">
<svg width="100%" height="100%" viewBox="0 0 79 146" version="1.1" xmlns="http://www.w3.org/2000/svg" xmlns:xlink="http://www.w3.org/1999/xlink" xml:space="preserve" xmlns:serif="http://www.serif.com/" style="fill-rule:evenodd;clip-rule:evenodd;stroke-linejoin:round;stroke-miterlimit:2;">
    <g transform="matrix(1,0,0,1,-164,-994)">
        <g transform="matrix(1,0,0,1,19.9344,-61.752)">
            <g id="Paintbrush" transform="matrix(3.89037,0.000667557,-0.000665416,3.8779,-226.923,-1010.76)">
                <g transform="matrix(1.20632,6.53946e-20,0,1.25892,-303.309,61.1286)">
                    <rect x="330.619" y="385.809" width="16.602" height="5.38" style="fill:rgb(0,153,74);"/>
                </g>
                <g transform="matrix(0.734651,2.56957e-20,1.57316e-17,1.14009,35.6843,-83.8137)">
                    <path d="M101.675,571.718C101.805,572.237 101.577,572.766 101.05,573.167C100.523,573.567 99.751,573.797 98.939,573.797L91.128,573.797C90.342,573.797 89.595,573.574 89.086,573.187C88.576,572.8 88.355,572.288 88.481,571.787C89.462,567.876 91.532,559.626 91.532,559.626L98.642,559.626C98.642,559.626 100.687,567.781 101.675,571.718Z" style="fill:rgb(0,153,74);"/>
                </g>
                <g transform="matrix(-1.40941,1.35392e-16,-1.44867e-16,-0.908992,239.551,1054.57)">
                    <rect x="87.977" y="559.626" width="14.22" height="14.171" style="fill:rgb(0,116,172);"/>
                </g>
                <g transform="matrix(0.491806,-8.43901e-05,5.84299e-05,0.340516,96.5745,364.907)">
                    <rect x="24.46" y="493.572" width="3.478" height="14.612" style="fill:white;"/>
                </g>
            </g>
        </g>
    </g>
</svg>
