<?xml version="1.0" encoding="UTF-8" standalone="no"?>
<!DOCTYPE svg PUBLIC "-//W3C//DTD SVG 1.1//EN" "http://www.w3.org/Graphics/SVG/1.1/DTD/svg11.dtd">
<svg width="100%" height="100%" viewBox="0 0 55 147" version="1.1" xmlns="http://www.w3.org/2000/svg" xmlns:xlink="http://www.w3.org/1999/xlink" xml:space="preserve" xmlns:serif="http://www.serif.com/" style="fill-rule:evenodd;clip-rule:evenodd;stroke-linecap:square;stroke-miterlimit:1.5;">
    <g transform="matrix(1,0,0,1,-1488,-993)">
        <g transform="matrix(1,0,0,1,19.9344,-61.752)">
            <g id="Rocket-ship" serif:id="Rocket ship" transform="matrix(1.22027,0,0,1.23239,1010.87,430.172)">
                <g transform="matrix(1,0,0,1,5.0838,1)">
                    <path d="M391.564,506.925L404.328,530.809L378.8,530.809L391.564,506.925Z" style="fill:rgb(0,116,172);stroke:rgb(0,116,172);stroke-width:0.82px;"/>
                </g>
                <g transform="matrix(1.08293,0,0,1.0293,-26.9163,-16.4487)">
                    <rect x="379.354" y="535.149" width="23.547" height="38.027" style="fill:rgb(0,116,172);stroke:rgb(0,116,172);stroke-width:0.77px;"/>
                </g>
                <g transform="matrix(0.924503,0,0,1,31.9102,-8.76737)">
                    <path d="M412.42,609.448L376.626,609.448L385.575,584.245L403.471,584.245L412.42,609.448Z" style="fill:rgb(0,116,172);stroke:rgb(0,116,172);stroke-width:0.85px;"/>
                </g>
                <g transform="matrix(0.947342,0.234981,-0.320224,0.695161,223.047,81.2358)">
                    <path d="M385.307,652.162L380.749,652.162L381.889,619.769L384.168,619.769L385.307,652.162Z" style="fill:rgb(0,153,74);"/>
                </g>
                <g transform="matrix(0.879965,0.0715521,-0.113885,0.412024,125.386,319.127)">
                    <path d="M385.307,652.162L380.749,652.162L381.889,619.769L384.168,619.769L385.307,652.162Z" style="fill:rgb(0,153,74);"/>
                </g>
                <g transform="matrix(-0.879965,0.0715521,0.113885,0.412024,668.162,319.127)">
                    <path d="M385.307,652.162L380.749,652.162L381.889,619.769L384.168,619.769L385.307,652.162Z" style="fill:rgb(0,153,74);"/>
                </g>
                <g transform="matrix(1,0,0,0.733802,13.9041,147.024)">
                    <path d="M385.307,652.162L380.749,652.162L381.889,619.769L384.168,619.769L385.307,652.162Z" style="fill:rgb(0,153,74);"/>
                </g>
                <g transform="matrix(0.947041,-0.235634,0.321113,0.69494,-155.336,261.632)">
                    <path d="M385.307,652.162L380.749,652.162L381.889,619.769L384.168,619.769L385.307,652.162Z" style="fill:rgb(0,153,74);"/>
                </g>
                <g transform="matrix(1.2744,0,0,1.2744,-49.3433,-138.384)">
                    <circle cx="349.963" cy="536.471" r="3.906" style="fill:white;stroke:rgb(160,160,160);stroke-width:0.64px;"/>
                </g>
            </g>
        </g>
    </g>
</svg>
