<?xml version="1.0" encoding="UTF-8" standalone="no"?>
<!DOCTYPE svg PUBLIC "-//W3C//DTD SVG 1.1//EN" "http://www.w3.org/Graphics/SVG/1.1/DTD/svg11.dtd">
<svg width="100%" height="100%" viewBox="0 0 274 274" version="1.1" xmlns="http://www.w3.org/2000/svg" xmlns:xlink="http://www.w3.org/1999/xlink" xml:space="preserve" xmlns:serif="http://www.serif.com/" style="fill-rule:evenodd;clip-rule:evenodd;stroke-linejoin:round;stroke-miterlimit:2;">
    <g transform="matrix(1,0,0,1,-128,-3064)">
        <g id="to-chat-with-svgrepo-com.svg" transform="matrix(0.341085,0,0,0.341085,265.39,3200.75)">
            <g transform="matrix(1,0,0,1,-400,-400)">
                <g id="SVGRepo_iconCarrier">
                    <path d="M115.625,106.875L495,106.875C535,106.875 567.5,139.375 567.5,179.375L567.5,468.75L217.5,468.75L97.5,564.375L97.5,468.125C57.5,468.125 25,435.625 25,395.625L25,196.875C25,146.875 65.625,106.875 115.625,106.875Z" style="fill:rgb(10,204,190);fill-rule:nonzero;"/>
                    <path d="M91.25,577.5L91.25,474.375C50.625,471.25 18.75,436.875 18.75,395.625L18.75,196.875C18.75,143.75 61.875,100.625 115.625,100.625L495,100.625C538.125,100.625 573.75,135.625 573.75,179.375L573.75,475L220,475L91.25,577.5ZM115.625,113.125C68.75,113.125 31.25,150.625 31.25,196.875L31.25,395.625C31.25,431.875 60.625,461.875 97.5,461.875L103.75,461.875L103.75,551.25L215.625,461.875L561.25,461.875L561.25,178.75C561.25,142.5 531.875,112.5 495,112.5L115.625,112.5L115.625,113.125Z" style="fill:rgb(106,87,109);fill-rule:nonzero;"/>
                    <path d="M97.5,570.625C96.875,570.625 95.625,570.625 95,570C93.125,568.75 91.25,566.875 91.25,564.375L91.25,474.375C50.625,471.25 18.75,436.875 18.75,395.625L18.75,196.875C18.75,143.75 61.875,100.625 115.625,100.625L495,100.625C538.125,100.625 573.75,135.625 573.75,179.375L573.75,468.75C573.75,472.5 571.25,475 567.5,475L220,475L101.25,570C100,570.625 98.75,570.625 97.5,570.625ZM115.625,113.125C68.75,113.125 31.25,150.625 31.25,196.875L31.25,395.625C31.25,431.875 60.625,461.875 97.5,461.875C101.25,461.875 103.75,464.375 103.75,468.125L103.75,551.25L214.375,463.125C215.625,462.5 216.875,461.875 218.125,461.875L561.25,461.875L561.25,178.75C561.25,142.5 531.875,112.5 495,112.5L115.625,112.5L115.625,113.125Z" style="fill:rgb(106,87,109);fill-rule:nonzero;"/>
                    <path d="M702.5,235.625L305,235.625C265,235.625 232.5,268.125 232.5,308.125L232.5,525C232.5,565 265,597.5 305,597.5L581.875,597.5L702.5,693.75L702.5,596.875C742.5,596.875 775,564.375 775,524.375L775,307.5C775,268.125 742.5,235.625 702.5,235.625Z" style="fill:rgb(189,189,189);fill-rule:nonzero;"/>
                    <path d="M702.5,699.375C701.25,699.375 700,698.75 698.75,698.125L580,603.125L305,603.125C261.875,603.125 226.25,568.125 226.25,524.375L226.25,307.5C226.25,264.375 261.25,228.75 305,228.75L702.5,228.75C745.625,228.75 781.25,263.75 781.25,307.5L781.25,524.375C781.25,565.625 749.375,599.375 708.75,602.5L708.75,693.125C708.75,695.625 707.5,697.5 705,698.75C704.375,699.375 703.75,699.375 702.5,699.375ZM305,241.875C268.75,241.875 238.75,271.25 238.75,308.125L238.75,525C238.75,561.25 268.125,591.25 305,591.25L581.875,591.25C583.125,591.25 584.375,591.875 585.625,592.5L696.25,680.625L696.25,596.875C696.25,593.125 698.75,590.625 702.5,590.625C738.75,590.625 768.75,561.25 768.75,524.375L768.75,307.5C768.75,271.25 739.375,241.25 702.5,241.25L305,241.25L305,241.875Z" style="fill:rgb(106,87,109);fill-rule:nonzero;"/>
                    <path d="M702.5,699.375C701.25,699.375 700,698.75 698.75,698.125L580,603.125L305,603.125C261.875,603.125 226.25,568.125 226.25,524.375L226.25,307.5C226.25,264.375 261.25,228.75 305,228.75L702.5,228.75C745.625,228.75 781.25,263.75 781.25,307.5L781.25,524.375C781.25,565.625 749.375,599.375 708.75,602.5L708.75,693.125C708.75,695.625 707.5,697.5 705,698.75C704.375,699.375 703.75,699.375 702.5,699.375ZM305,241.875C268.75,241.875 238.75,271.25 238.75,308.125L238.75,525C238.75,561.25 268.125,591.25 305,591.25L581.875,591.25C583.125,591.25 584.375,591.875 585.625,592.5L696.25,680.625L696.25,596.875C696.25,593.125 698.75,590.625 702.5,590.625C738.75,590.625 768.75,561.25 768.75,524.375L768.75,307.5C768.75,271.25 739.375,241.25 702.5,241.25L305,241.25L305,241.875Z" style="fill:rgb(106,87,109);fill-rule:nonzero;"/>
                    <path d="M353.125,419.375C353.125,435.833 366.667,449.375 383.125,449.375C399.583,449.375 413.125,435.833 413.125,419.375L413.125,419.375C413.125,402.917 399.583,389.375 383.125,389.375C366.667,389.375 353.125,402.917 353.125,419.375L353.125,419.375Z" style="fill:white;fill-rule:nonzero;"/>
                    <path d="M473.75,419.375C473.75,435.833 487.292,449.375 503.75,449.375C520.208,449.375 533.75,435.833 533.75,419.375L533.75,419.375C533.75,402.917 520.208,389.375 503.75,389.375C487.292,389.375 473.75,402.917 473.75,419.375L473.75,419.375Z" style="fill:white;fill-rule:nonzero;"/>
                    <path d="M594.375,419.375C594.375,435.833 607.917,449.375 624.375,449.375C640.833,449.375 654.375,435.833 654.375,419.375L654.375,419.375C654.375,402.917 640.833,389.375 624.375,389.375C607.917,389.375 594.375,402.917 594.375,419.375L594.375,419.375Z" style="fill:white;fill-rule:nonzero;"/>
                    <path d="M383.125,455.625C363.125,455.625 346.875,439.375 346.875,419.375C346.875,399.375 363.125,383.125 383.125,383.125C403.125,383.125 419.375,399.375 419.375,419.375C419.375,439.375 403.75,455.625 383.125,455.625ZM383.125,395.625C370,395.625 359.375,406.25 359.375,419.375C359.375,432.5 370,443.125 383.125,443.125C396.25,443.125 406.875,432.5 406.875,419.375C406.875,406.25 396.875,395.625 383.125,395.625ZM503.75,455.625C483.75,455.625 467.5,439.375 467.5,419.375C467.5,399.375 483.75,383.125 503.75,383.125C523.75,383.125 540,399.375 540,419.375C540,439.375 523.75,455.625 503.75,455.625ZM503.75,395.625C490.625,395.625 480,406.25 480,419.375C480,432.5 490.625,443.125 503.75,443.125C516.875,443.125 527.5,432.5 527.5,419.375C527.5,406.25 516.875,395.625 503.75,395.625ZM624.375,455.625C604.375,455.625 588.125,439.375 588.125,419.375C588.125,399.375 604.375,383.125 624.375,383.125C644.375,383.125 660.625,399.375 660.625,419.375C660.625,439.375 644.375,455.625 624.375,455.625ZM624.375,395.625C611.25,395.625 600.625,406.25 600.625,419.375C600.625,432.5 611.25,443.125 624.375,443.125C637.5,443.125 648.125,432.5 648.125,419.375C648.125,406.25 637.5,395.625 624.375,395.625Z" style="fill:rgb(106,87,109);fill-rule:nonzero;"/>
                </g>
            </g>
        </g>
    </g>
</svg>
